# xmcd
#
# Track frame offsets:
#   165
#   18582
#   34554
#   51712
#   63575
#   82121
#   97959
#   116639
#   132138
#   150325
#   165924
#   178899
#   199417
#   212925
#   222762
#   239225
#   256319
#   273589
#   288184
#   306868
#   317743
#
# Disc length: 4458 seconds
#
# Revision: 0
# Processed by: cddbd v1.5.1PL0 Copyright (c) Steve Scherf et al.
# Submitted via: uFREEDB ActiveX Control 1.5
#
DISCID=3d116815
DTITLE=Carlos Cezar e Cristiano - Dose Dupla
DYEAR=1900
DGENRE=Country
TTITLE0=O Vai e vem do Carreiro
TTITLE1=Mundo de Dor
TTITLE2=Berrante de Ouro
TTITLE3=Mercedita
TTITLE4=Cavalinho de Pau
TTITLE5=Tu solo tu
TTITLE6=Boiadeiro Errante
TTITLE7=Menina da Favela
TTITLE8=O Homem e a Natureza
TTITLE9=Cachoeira
TTITLE10=Pássarp Tiuí
TTITLE11=Caminheiro
TTITLE12=Caixinha de Ciúmes
TTITLE13=Vidinha
TTITLE14=Existe alguem Pra Mim
TTITLE15=Cara e Coragem
TTITLE16=Pedra
TTITLE17=Retalhos de Amor
TTITLE18=Tanta Água, Tanta sede
TTITLE19=Os Cowboys Andarilhos
TTITLE20=Grito Aberto
EXTD=
EXTT0=
EXTT1=
EXTT2=
EXTT3=
EXTT4=
EXTT5=
EXTT6=
EXTT7=
EXTT8=
EXTT9=
EXTT10=
EXTT11=
EXTT12=
EXTT13=
EXTT14=
EXTT15=
EXTT16=
EXTT17=
EXTT18=
EXTT19=
EXTT20=
PLAYORDER=
